<?xml version="1.0" standalone="no"?>
<!DOCTYPE svg PUBLIC "-//W3C//DTD SVG 20010904//EN"
 "http://www.w3.org/TR/2001/REC-SVG-20010904/DTD/svg10.dtd">
<svg version="1.0" xmlns="http://www.w3.org/2000/svg"
 width="1000.000000pt" height="1000.000000pt" viewBox="0 0 1000.000000 1000.000000"
 preserveAspectRatio="xMidYMid meet">
<metadata>
Created by potrace 1.11, written by Peter Selinger 2001-2013
</metadata>
<g transform="translate(0.000000,1000.000000) scale(0.100000,-0.100000)"
fill="#000000" stroke="none">
<path d="M8118 8655 c-2 -1 -59 -5 -128 -8 -69 -4 -136 -9 -150 -12 -14 -3
-41 -8 -60 -11 -326 -56 -594 -201 -839 -453 -69 -70 -192 -213 -234 -271
-156 -217 -247 -362 -409 -649 -32 -57 -58 -105 -58 -106 0 -2 -27 -49 -60
-104 -33 -56 -60 -103 -60 -105 0 -2 -33 -62 -73 -133 -41 -70 -89 -155 -107
-188 -35 -63 -154 -275 -298 -530 -47 -82 -96 -170 -110 -195 -14 -25 -82
-146 -152 -270 -70 -124 -139 -246 -153 -272 -24 -43 -69 -124 -137 -243 -13
-22 -51 -89 -85 -150 -34 -60 -77 -137 -96 -170 l-34 -60 -3 43 c-2 23 -6 42
-10 42 -4 0 -7 18 -6 40 0 23 -3 43 -7 46 -4 2 -6 13 -4 24 2 11 1 20 -3 20
-5 0 -7 15 -7 33 1 17 -1 36 -4 42 -6 11 -7 20 -15 85 -8 64 -10 73 -20 89 -7
10 -6 12 4 6 10 -6 11 -4 4 6 -9 15 -12 25 -19 79 -3 19 -7 51 -10 70 -3 19
-6 42 -7 50 0 8 -6 18 -12 22 -7 5 -6 8 3 8 11 0 11 3 1 15 -7 8 -10 15 -8 15
3 0 1 24 -4 53 -18 105 -20 122 -20 140 1 9 -3 17 -9 17 -5 0 -9 5 -9 11 0 5
5 7 11 3 7 -4 7 1 -1 16 -6 12 -9 28 -6 36 3 8 2 14 -2 14 -4 0 -7 15 -7 33 0
17 -2 37 -6 42 -13 22 -17 55 -6 55 9 0 9 2 1 8 -6 4 -10 17 -9 30 1 12 -2 22
-6 22 -4 0 -6 11 -5 25 2 14 -3 36 -10 50 -7 14 -9 23 -4 20 11 -7 14 8 3 18
-6 7 -15 60 -17 110 0 15 -3 27 -6 27 -3 0 -7 15 -9 33 -5 61 -7 72 -13 82 -3
6 -6 26 -7 45 -4 64 -5 70 -11 70 -4 0 -6 10 -5 23 1 12 0 26 -3 32 -3 5 -6
21 -6 35 -1 14 -4 30 -7 35 -4 6 -6 22 -5 38 1 15 -1 27 -4 27 -3 0 -6 12 -6
28 -1 15 -5 36 -9 46 -7 15 -5 17 6 11 12 -8 12 -6 1 8 -8 9 -15 29 -17 44 -2
15 -6 44 -9 63 -3 19 -7 50 -8 68 -1 17 -5 32 -8 32 -6 0 -8 17 -13 103 -1 9
-4 17 -7 17 -4 0 -6 10 -5 23 1 12 -1 33 -5 47 -4 14 -4 35 1 47 5 13 4 25 -2
28 -5 4 -6 12 -2 18 4 7 8 23 9 37 3 42 15 84 27 99 10 12 9 13 -3 6 -12 -7
-13 -6 -3 7 7 8 10 18 6 21 -3 4 -1 7 5 7 10 0 22 25 21 43 0 5 8 16 18 25 10
9 24 29 31 43 14 27 42 62 91 116 16 17 27 33 25 36 -3 3 4 8 16 12 13 4 19
12 16 21 -3 8 1 14 9 14 7 0 16 8 20 18 3 9 17 31 31 47 15 17 23 24 19 16 -6
-9 -4 -12 4 -7 6 4 9 11 6 16 -3 5 0 14 7 22 7 7 14 20 16 28 2 8 8 17 13 18
5 2 7 8 4 13 -3 5 -1 18 5 29 8 15 8 20 -2 20 -10 0 -10 2 0 9 8 4 13 17 12
27 -1 11 -1 24 0 29 5 24 -1 119 -8 129 -5 6 -7 21 -6 33 0 12 -2 20 -7 18 -4
-3 -10 -1 -14 5 -3 5 -1 10 5 10 8 0 7 5 -2 15 -29 32 -39 45 -33 45 3 0 -9
15 -27 34 -18 18 -36 31 -40 29 -5 -2 -8 1 -8 8 0 7 -3 9 -6 6 -4 -4 -15 3
-25 14 -9 11 -20 20 -23 20 -17 -1 -36 13 -42 32 -12 40 -88 124 -139 155 -64
38 -131 61 -225 76 -56 9 -467 12 -1660 11 -1397 -2 -1593 -4 -1655 -17 -147
-33 -236 -93 -285 -193 -22 -44 -25 -63 -25 -165 1 -179 4 -185 219 -403 226
-229 300 -337 344 -502 19 -71 50 -222 66 -325 3 -19 8 -46 11 -60 12 -61 15
-77 20 -105 2 -16 14 -82 26 -145 12 -63 23 -124 24 -135 2 -11 10 -58 19
-105 8 -47 18 -98 21 -115 2 -16 7 -41 10 -55 4 -21 33 -178 50 -275 3 -16 10
-55 16 -85 11 -63 75 -418 84 -470 3 -19 12 -66 20 -105 8 -38 16 -86 19 -105
3 -19 8 -46 11 -60 3 -14 8 -41 11 -60 4 -19 8 -44 10 -55 4 -21 31 -170 39
-220 3 -16 12 -64 20 -105 8 -41 17 -91 20 -110 3 -19 8 -46 10 -60 10 -49 47
-247 60 -325 3 -16 12 -66 20 -110 8 -44 19 -105 25 -135 5 -30 16 -91 25
-135 8 -44 17 -96 20 -115 3 -19 14 -82 25 -140 11 -58 29 -154 40 -215 11
-60 22 -123 25 -140 6 -31 33 -181 40 -225 3 -14 7 -36 10 -50 3 -14 8 -38 10
-55 3 -16 15 -82 26 -145 12 -63 23 -126 25 -140 3 -14 11 -59 19 -100 8 -41
17 -91 20 -110 3 -19 13 -73 21 -120 9 -47 17 -92 19 -100 6 -36 15 -87 20
-110 3 -14 8 -38 10 -55 3 -16 10 -57 16 -90 6 -33 17 -91 24 -130 8 -38 16
-83 19 -100 11 -76 50 -230 82 -325 67 -199 160 -360 266 -457 124 -114 200
-197 190 -208 -4 -4 0 -5 8 -3 8 2 14 -3 12 -10 -1 -8 1 -11 6 -8 5 3 20 -6
34 -19 14 -13 29 -21 32 -18 3 4 6 -1 6 -11 0 -9 5 -14 10 -11 6 3 10 1 10 -6
0 -7 3 -10 6 -6 4 3 13 -1 21 -9 8 -8 19 -12 24 -9 5 4 9 1 9 -4 0 -6 6 -11
14 -11 8 0 16 -5 18 -11 2 -5 11 -11 20 -13 10 -1 21 -5 24 -9 11 -11 26 -8
19 3 -4 6 10 1 29 -10 20 -11 38 -20 41 -20 3 0 6 0 8 -1 12 -3 80 -10 110
-12 20 -1 37 -5 37 -10 0 -5 6 -4 14 2 11 9 15 9 19 -1 3 -7 6 -8 6 -3 1 6 38
10 92 10 50 0 93 3 96 8 2 4 9 5 14 2 5 -4 9 -1 9 6 0 10 3 10 11 2 9 -9 15
-8 26 3 8 8 19 11 25 8 6 -4 14 0 19 7 7 12 9 11 9 -1 0 -11 2 -12 8 -2 5 7
19 15 32 17 13 2 26 8 29 13 3 5 14 8 23 7 9 -2 19 4 22 12 3 8 10 11 16 8 5
-3 10 -1 10 5 0 6 4 9 9 5 5 -3 12 -1 16 5 4 6 11 8 16 5 5 -4 9 1 9 9 0 14
35 33 52 28 5 -1 8 5 8 14 0 8 4 13 8 10 5 -3 26 11 47 30 21 19 43 34 47 34
5 0 6 5 3 10 -3 6 -2 10 4 10 16 0 148 139 211 222 8 11 24 30 35 41 12 12 23
27 25 32 3 6 8 9 13 7 4 -1 6 1 5 5 -3 9 29 60 49 81 7 8 10 19 6 25 -3 7 -3
9 2 5 8 -8 42 29 47 52 2 7 13 24 26 38 12 14 22 31 22 38 0 8 5 14 10 14 6 0
10 5 10 11 0 6 7 17 15 26 8 8 13 18 10 23 -3 4 2 11 11 14 8 3 12 10 9 16 -3
5 -2 10 3 10 5 0 19 20 32 45 13 25 27 45 32 45 5 0 6 5 3 10 -3 6 -1 10 4 10
6 0 11 9 11 20 0 11 9 25 19 32 10 6 17 18 14 25 -3 7 -1 13 5 13 5 0 15 14
22 30 7 17 16 30 21 30 5 0 9 7 9 15 0 8 8 24 18 35 9 11 17 24 17 28 1 10 38
66 50 74 5 4 6 8 1 8 -5 0 -3 6 3 13 6 8 7 17 3 21 -4 4 0 6 8 4 8 -1 14 3 12
10 -1 6 3 12 9 12 5 0 8 4 5 9 -3 4 3 16 14 26 11 10 16 24 13 33 -4 10 -2 13
5 8 7 -4 12 -1 12 8 0 9 5 16 11 16 5 0 8 4 4 9 -3 6 2 14 11 19 9 5 16 12 16
15 0 19 11 47 19 47 5 0 9 7 9 15 0 9 7 18 15 21 8 4 13 10 10 14 -3 5 5 19
17 31 13 12 16 18 8 14 -13 -8 -13 -7 0 11 8 10 20 22 25 26 6 4 6 8 2 8 -5 0
-1 7 7 16 9 8 14 20 11 25 -4 5 -2 9 3 9 9 0 54 75 52 86 -1 4 4 10 12 15 7 5
13 13 13 19 0 6 7 15 15 20 8 5 11 10 6 10 -5 0 1 11 13 24 13 14 20 29 17 34
-3 6 1 13 10 16 8 3 13 10 10 15 -4 5 -3 11 2 13 10 4 72 105 72 118 0 6 4 10
9 10 5 0 12 8 15 18 7 19 29 59 47 83 7 10 11 20 10 24 -2 4 1 11 6 14 11 7
66 98 76 124 3 9 11 17 17 17 6 0 9 4 6 9 -3 4 6 23 19 41 14 19 25 38 25 43
0 4 12 24 26 43 15 19 23 34 18 34 -4 0 1 7 12 16 10 8 12 13 4 9 -13 -6 -13
-5 0 7 8 7 24 30 34 50 11 20 24 34 28 32 5 -3 7 -2 6 3 -4 12 26 73 35 73 5
0 5 5 2 10 -3 6 -1 10 4 10 6 0 11 7 11 15 0 8 3 15 8 15 4 0 16 18 26 40 11
22 23 40 28 40 5 0 7 4 4 9 -3 5 1 14 9 21 8 7 12 16 9 21 -3 5 2 12 10 15 9
3 14 10 11 14 -3 4 2 11 11 14 8 3 13 10 10 15 -3 5 1 14 9 21 8 7 12 16 9 21
-3 5 0 9 6 9 6 0 8 4 5 10 -3 6 1 10 9 10 9 0 15 3 14 8 -4 14 14 52 24 52 6
0 8 3 5 7 -4 3 1 12 11 20 11 9 11 12 2 7 -8 -4 -5 3 8 15 12 12 22 26 22 31
0 5 16 34 35 64 19 30 35 60 35 66 0 5 5 10 10 10 6 0 10 9 10 21 0 11 5 17
10 14 6 -4 13 7 16 24 4 17 10 28 15 25 5 -3 9 2 9 10 0 8 7 22 16 30 8 9 13
16 9 16 -3 0 4 15 17 33 13 17 23 34 23 37 0 3 10 19 22 36 12 17 20 34 16 37
-3 4 2 9 11 13 9 3 13 10 10 15 -3 5 0 9 6 9 6 0 9 4 6 9 -3 5 1 12 10 15 9 4
14 9 10 13 -3 3 5 21 19 38 13 18 22 35 19 37 -2 3 2 11 11 18 8 7 15 16 15
21 0 4 14 28 30 52 17 25 30 50 30 56 0 6 5 11 10 11 6 0 10 5 10 10 0 6 12
29 27 53 14 23 25 44 24 46 -2 2 2 7 7 10 6 3 12 13 14 20 2 8 11 23 21 33 9
10 17 25 17 33 0 8 4 15 9 15 5 0 16 18 25 40 9 22 21 40 27 40 5 0 7 5 4 10
-3 6 -2 10 3 10 6 0 13 11 16 25 4 14 11 23 17 20 5 -4 8 -3 7 2 -5 18 14 53
25 47 7 -4 9 -4 5 1 -8 9 22 65 34 65 4 0 8 5 8 11 0 5 -6 7 -12 3 -9 -5 -9
-3 1 9 7 9 18 14 24 10 5 -3 7 -1 4 5 -4 5 9 34 28 63 19 30 38 62 41 71 3 10
10 18 15 18 6 0 8 4 5 8 -3 5 3 18 14 29 10 12 16 24 13 27 -4 3 -1 6 5 6 7 0
12 7 12 15 0 7 8 19 18 24 10 6 12 11 4 11 -8 0 -6 8 8 22 11 12 20 28 20 35
0 7 5 13 10 13 6 0 10 7 10 15 0 9 7 18 15 21 8 4 12 10 9 15 -3 5 6 24 20 42
15 19 26 39 26 45 0 6 7 15 16 20 9 5 16 12 15 15 -1 13 13 43 31 61 9 10 15
23 12 28 -3 4 0 8 6 8 6 0 9 4 6 9 -4 5 -3 11 1 13 5 1 26 32 47 68 22 36 42
67 45 70 3 3 7 12 9 20 2 8 10 22 18 31 8 8 14 21 14 28 0 6 7 14 15 17 8 4
13 10 10 14 -3 5 -1 11 5 15 6 4 8 10 5 15 -3 4 2 10 10 14 8 3 15 10 15 17 0
6 9 24 21 40 11 16 17 29 12 29 -4 0 -1 5 7 10 8 5 15 14 15 20 0 6 7 15 15
20 8 5 11 10 7 10 -5 0 -1 7 7 16 9 8 13 20 10 26 -4 7 -2 8 4 4 11 -6 16 6
13 27 0 4 3 7 9 7 6 0 9 6 8 13 -2 6 3 11 10 9 8 -1 11 2 8 7 -4 5 1 17 10 25
8 9 12 16 8 16 -3 0 -1 7 6 15 7 8 10 15 7 15 -3 0 5 11 18 25 l23 26 26 -26
c14 -14 23 -25 21 -25 -2 0 20 -24 48 -53 29 -29 54 -52 56 -51 1 2 13 -6 25
-17 46 -43 82 -69 94 -69 6 0 12 -4 12 -9 0 -5 23 -20 50 -32 28 -12 50 -26
50 -31 0 -4 7 -8 15 -8 9 0 38 -11 65 -25 28 -14 50 -22 50 -19 0 4 7 1 15 -6
9 -7 18 -10 22 -7 3 3 19 -1 35 -9 16 -9 36 -13 44 -10 7 3 16 1 20 -5 3 -6
12 -8 19 -5 7 2 18 -1 24 -7 8 -8 11 -8 11 2 0 11 3 11 15 1 9 -7 49 -13 100
-13 47 -1 85 -5 85 -10 0 -4 5 -5 12 -1 7 4 33 9 58 11 25 1 59 5 75 8 66 12
81 15 100 19 11 3 20 5 20 6 0 1 13 4 30 6 16 3 35 10 42 16 7 5 16 7 22 4 5
-3 11 -2 13 4 2 6 12 12 23 14 11 3 49 19 85 37 36 18 68 32 73 31 4 -1 7 3 7
9 0 5 14 15 30 20 17 6 30 16 30 22 0 6 3 8 6 4 3 -3 11 -1 18 4 48 41 61 49
72 49 8 0 11 6 8 15 -4 10 0 15 10 15 9 0 35 19 57 43 23 23 46 41 51 39 5 -1
7 1 5 6 -3 4 12 25 34 47 21 21 39 43 39 50 0 6 9 17 20 25 11 8 20 20 20 26
0 6 11 23 25 38 13 14 22 26 19 26 -3 0 4 12 15 26 11 15 19 30 16 34 -3 4 2
10 10 14 8 3 15 13 15 22 0 10 6 25 14 33 8 9 16 25 18 36 1 11 10 25 18 32
13 11 13 12 0 13 -11 0 -12 2 -2 8 7 5 15 19 17 33 3 13 9 25 14 27 5 2 7 11
4 21 -2 10 3 25 12 35 12 12 13 16 3 16 -8 0 -9 3 -3 8 6 4 11 16 10 27 0 11
3 23 8 26 4 3 8 22 9 42 1 20 4 37 7 37 4 0 7 15 8 33 4 96 7 116 16 110 6 -4
7 -1 2 8 -13 20 -13 49 -1 49 6 0 6 4 -2 12 -7 7 -8 17 -1 30 6 12 6 18 0 18
-7 0 -7 9 -1 25 6 16 6 25 -1 25 -6 0 -6 6 0 19 6 10 8 21 5 24 -3 2 -7 19 -9
36 -3 23 -1 30 8 24 8 -5 8 -2 -1 9 -7 9 -12 20 -10 24 1 5 -2 34 -7 64 -12
74 -12 74 -15 83 -1 4 -4 16 -5 27 -1 11 -3 21 -5 23 -3 4 -12 42 -13 60 -1 9
-5 17 -10 17 -5 0 -7 7 -3 15 3 8 2 15 -3 15 -4 0 -8 6 -9 13 -2 26 -30 89
-43 98 -8 5 -11 9 -6 9 4 0 0 15 -10 33 -9 17 -18 37 -18 42 -1 6 -7 9 -14 7
-7 -1 -10 2 -7 6 3 5 -5 21 -17 34 -13 14 -21 31 -19 38 3 7 1 10 -4 7 -5 -2
-15 1 -22 9 -7 8 -10 14 -6 14 3 0 -10 17 -30 37 -20 21 -36 41 -36 45 0 4 -6
8 -14 8 -8 0 -18 9 -21 20 -4 11 -11 18 -16 15 -5 -4 -9 -2 -9 4 0 5 -9 13
-21 16 -11 4 -18 9 -15 12 9 9 -198 209 -259 250 -115 76 -221 124 -347 157
-113 29 -148 35 -263 42 -49 3 -98 7 -107 8 -9 2 -18 3 -20 1z"/>
</g>
</svg>
